<?xml version="1.0" encoding="iso-8859-1"?>
<!-- Generator: Adobe Illustrator 16.0.0, SVG Export Plug-In . SVG Version: 6.00 Build 0)  -->
<!DOCTYPE svg PUBLIC "-//W3C//DTD SVG 1.1//EN" "http://www.w3.org/Graphics/SVG/1.1/DTD/svg11.dtd">
<svg version="1.1" id="Capa_1" xmlns="http://www.w3.org/2000/svg" xmlns:xlink="http://www.w3.org/1999/xlink" x="0px" y="0px"
	 width="70.074px" height="70.074px" viewBox="0 0 70.074 70.074" style="enable-background:new 0 0 70.074 70.074;"
	 xml:space="preserve">
<g>
	<path d="M24.942,36.026h2.793c-0.021-0.388-0.035-0.79-0.035-1.195c0-0.35,0.015-0.704,0.035-1.056h-3.39l0.597-2.023h3.02
		c0.329-1.737,0.927-3.244,1.808-4.517c1.487-2.148,3.531-3.227,6.147-3.227c2.226,0,3.947,0.699,5.176,2.093
		c1.236,1.401,1.916,2.986,2.055,4.76h-2.326c-0.254-1.342-0.78-2.415-1.569-3.207c-0.79-0.79-1.89-1.184-3.307-1.184
		c-1.738,0-3.145,0.729-4.206,2.187c-0.591,0.798-1.016,1.824-1.268,3.092h7.949l-0.598,2.021h-7.641
		c-0.034,0.483-0.044,0.999-0.044,1.54c0,0.243,0.004,0.483,0.01,0.711h8.269l-0.598,2.027h-7.455
		c0.232,1.245,0.633,2.321,1.217,3.234c0.958,1.519,2.392,2.283,4.302,2.283c1.762,0,3.104-0.803,4.023-2.406
		c0.488-0.849,0.847-1.958,1.083-3.338h2.325c-0.213,2.201-0.896,4.049-2.067,5.543c-1.397,1.8-3.277,2.696-5.646,2.696
		c-2.039,0-3.754-0.738-5.146-2.212c-1.311-1.388-2.153-3.321-2.523-5.797h-3.588L24.942,36.026z M0,13.75h70.074v42.574H0V13.75z
		 M59.552,17.873h6.877v6.879h1.168v-8.047h-8.045V17.873z M59.552,53.368h8.045V45.32h-1.168v6.88h-6.877V53.368z M19.303,35.036
		c0,8.692,7.04,15.738,15.734,15.738c8.695,0,15.734-7.051,15.734-15.738c0-8.688-7.039-15.738-15.734-15.738
		C26.34,19.298,19.303,26.344,19.303,35.036z M2.478,24.754h1.168v-6.88h6.876v-1.168H2.478V24.754z M2.478,53.368h8.044V52.2H3.646
		v-6.88H2.478V53.368z"/>
</g>
<g>
</g>
<g>
</g>
<g>
</g>
<g>
</g>
<g>
</g>
<g>
</g>
<g>
</g>
<g>
</g>
<g>
</g>
<g>
</g>
<g>
</g>
<g>
</g>
<g>
</g>
<g>
</g>
<g>
</g>
</svg>
